# xmcd
#
# Track frame offsets:
#	150
#	40280
#	63833
#	93346
#	112190
#	135091
#	158209
#	183590
#	207555
#	227868
#	249541
#	272583
#	296256
#	320673
#
# Disc length: 4614 seconds
#
# Revision: 0
# Processed by: cddbd v1.5.2PL0 Copyright (c) Steve Scherf et al.
# Submitted via: dBpowerAMP V4.0
#
DISCID=ca12040e
DTITLE=kouktel - aller
DYEAR=1900
DGENRE=
TTITLE0=Track01 a
TTITLE1=Track02 aa
TTITLE2=Track03 aaa
TTITLE3=Track04 aaaa
TTITLE4=Track05 aaaaa
TTITLE5=Track06 b
TTITLE6=bb
TTITLE7=Track08 bbb
TTITLE8=Track09 bbbb
TTITLE9=Track10 bbbbb
TTITLE10=Track11 c
TTITLE11=Track12 cc
TTITLE12=Track13 ccc
TTITLE13=Track14 cccc
EXTD=aller
EXTT0=
EXTT1=
EXTT2=
EXTT3=
EXTT4=
EXTT5=
EXTT6=
EXTT7=
EXTT8=
EXTT9=
EXTT10=
EXTT11=
EXTT12=
EXTT13=
PLAYORDER=
